# xmcd
#
# Track frame offsets: 
#        150
#        21993
#        43130
#        59533
#        77018
#        105993
#        121525
#        150418
#        172470
#        186813
#        206990
#        229690
#        249043
#        270095
#        289465
#        305435
#
# Disc length: 4322 seconds
#
# Revision: 1
# Processed by: cddbd v1.5.2PL0 Copyright (c) Steve Scherf et al.
# Submitted via: ExactAudioCopy v0.99pb3
#
DISCID=d510e010
DTITLE=Jimmy Buffett - Feeding Frenzy (Live)
DYEAR=1990
DGENRE=Country Rock
TTITLE0=You'll Never Work In Dis Bidness Again
TTITLE1=The City
TTITLE2=Last Mango In Paris
TTITLE3=Come Monday
TTITLE4=Today's Message
TTITLE5=A Love Song (From A Different Point Of View)
TTITLE6=One Particular Harbour
TTITLE7=Honey Do
TTITLE8=Cheesburger In Paradise
TTITLE9=A Pirate Looks At 40
TTITLE10=Jolly Mon
TTITLE11=Gypsies In The Palace
TTITLE12=Fins
TTITLE13=Margaritaville
TTITLE14=Jamaica Farewell
TTITLE15=Volcano
EXTD=0\n\n\n
EXTT0=
EXTT1=
EXTT2=
EXTT3=
EXTT4=
EXTT5=
EXTT6=
EXTT7=
EXTT8=
EXTT9=
EXTT10=
EXTT11=
EXTT12=
EXTT13=
EXTT14=
EXTT15=
PLAYORDER=
